<?xml version="1.0" standalone="no"?>
<!DOCTYPE svg PUBLIC "-//W3C//DTD SVG 20010904//EN"
 "http://www.w3.org/TR/2001/REC-SVG-20010904/DTD/svg10.dtd">
<svg version="1.0" xmlns="http://www.w3.org/2000/svg"
 width="360.000000pt" height="528.000000pt" viewBox="0 0 360.000000 528.000000"
 preserveAspectRatio="xMidYMid meet">

<g transform="translate(0.000000,528.000000) scale(0.100000,-0.100000)"
fill="#000000" stroke="none">
<path d="M40 210 c-9 -6 -10 -10 -3 -10 6 0 15 5 18 10 8 12 4 12 -15 0z"/>
<path d="M3573 188 c-4 -7 -8 -20 -8 -28 0 -11 -11 -15 -40 -14 -22 1 -34 -1
-27 -3 20 -8 14 -23 -10 -24 -22 0 -22 -1 -3 -8 11 -5 22 -4 23 0 6 14 34 10
30 -3 -5 -13 -9 -14 -46 -17 -10 0 -19 -8 -19 -16 0 -10 6 -13 19 -9 10 3 18
1 18 -4 0 -6 -10 -12 -23 -16 -14 -3 -23 -13 -23 -26 0 -18 7 -20 68 -20 l68
0 0 100 c0 93 -8 118 -27 88z m-13 -158 c0 -5 -4 -10 -9 -10 -6 0 -13 5 -16
10 -3 6 1 10 9 10 9 0 16 -4 16 -10z"/>
<path d="M6 162 c-3 -5 -5 -43 -4 -85 l1 -77 83 0 c51 0 84 4 84 10 0 6 -16
24 -35 41 -19 17 -33 34 -32 39 2 10 -69 60 -86 60 -7 0 -6 4 3 10 9 6 10 10
3 10 -6 0 -14 -4 -17 -8z m54 -122 c0 -5 -4 -10 -10 -10 -5 0 -10 5 -10 10 0
6 5 10 10 10 6 0 10 -4 10 -10z"/>
</g>
</svg>
